<svg width="93" height="94" viewBox="0 0 93 94" fill="none" xmlns="http://www.w3.org/2000/svg">
<path d="M39.3293 75.7102C38.4397 79.2808 34.7937 81.4776 31.4503 79.9244C25.4599 77.1416 20.273 72.785 16.4849 67.2722C11.4279 59.9127 9.21118 50.9986 10.2507 42.2021C11.2903 33.4055 15.5147 25.331 22.1314 19.4932C28.7481 13.6554 37.3025 10.4556 46.1898 10.4938C55.0771 10.5321 63.6866 13.8059 70.4033 19.7011C77.12 25.5964 81.4824 33.7079 82.672 42.514C83.8615 51.3202 81.7967 60.2159 76.8647 67.5323C73.1673 73.0173 68.049 77.3321 62.0994 80.0631C58.7816 81.5861 55.1198 79.3784 54.1737 75.8164C53.2188 72.2213 55.4342 68.6342 58.5932 66.7385C61.417 65.0439 63.8578 62.7445 65.7257 59.9735C68.8484 55.341 70.1558 49.7087 69.4026 44.133C68.6494 38.5573 65.8874 33.4214 61.6347 29.6888C57.3819 25.9562 51.9307 23.8834 46.3037 23.8592C40.6766 23.8349 35.2604 25.861 31.0709 29.5572C26.8815 33.2534 24.2068 38.3659 23.5486 43.9355C22.8904 49.5051 24.2939 55.1491 27.4958 59.8088C29.4252 62.6166 31.9277 64.9507 34.8071 66.6735C37.9738 68.5681 40.2189 72.1395 39.3293 75.7102Z" fill="#D9D9D9"/>
<path d="M37.6807 66.9392C33.12 64.8311 29.4017 61.2353 27.1462 56.7522C24.8907 52.2691 24.2343 47.1698 25.2863 42.3052C26.3383 37.4406 29.0351 33.1047 32.9269 30.0212C36.8188 26.9376 41.6703 25.2928 46.6719 25.3617C51.6736 25.4306 56.5225 27.2089 60.4095 30.3998C64.2965 33.5908 66.9863 38.0011 68.0303 42.8947C69.0743 47.7883 68.4095 52.8693 66.1468 57.2899C63.8841 61.7106 60.1603 65.2036 55.5966 67.1859" stroke="white" stroke-opacity="0.5" stroke-width="0.3" stroke-linecap="round" stroke-linejoin="round" stroke-dasharray="1.5 1.5"/>
<path d="M39.4532 75.7237C38.5751 79.3119 34.9316 81.5213 31.5844 79.9609C26.7737 77.7183 22.4634 74.4537 18.9731 70.3678C14.0226 64.5724 10.9666 57.411 10.2277 49.8738C9.48884 42.3366 11.1036 34.796 14.8487 28.2946C18.5938 21.7932 24.2843 16.6521 31.1333 13.5821C37.9823 10.5122 45.6516 9.66513 53.0806 11.158C60.5097 12.6509 67.3315 16.4099 72.603 21.9155C77.8744 27.421 81.3351 34.401 82.5064 41.8904C83.3268 47.1359 82.9958 52.4498 81.5692 57.4696C80.5531 61.0452 76.4642 62.3446 73.1563 60.6428C69.837 58.9351 68.6075 54.8335 69.2288 51.1501C69.6386 48.7204 69.6571 46.2195 69.2698 43.7426C68.5291 39.0065 66.3406 34.5925 63.0071 31.1109C59.6735 27.6293 55.3595 25.2521 50.6615 24.3081C45.9635 23.364 41.1136 23.8997 36.7825 25.841C32.4513 27.7824 28.8527 31.0335 26.4844 35.1449C24.116 39.2563 23.0949 44.0248 23.5622 48.7912C24.0294 53.5575 25.9619 58.0863 29.0926 61.7512C30.7658 63.7099 32.7371 65.3702 34.9183 66.6768C38.0819 68.5717 40.3288 72.1458 39.4532 75.7237Z" fill="url(#paint0_linear_1006_35)"/>
<g filter="url(#filter0_f_1006_35)">
<path d="M39.4532 75.7237C38.5751 79.3119 34.9316 81.5213 31.5844 79.9609C26.7737 77.7183 22.4634 74.4537 18.9731 70.3678C14.0226 64.5724 10.9666 57.411 10.2277 49.8738C9.48884 42.3366 11.1036 34.796 14.8487 28.2946C18.5938 21.7932 24.2843 16.6521 31.1333 13.5821C37.9823 10.5122 45.6516 9.66513 53.0806 11.158C60.5097 12.6509 67.3315 16.4099 72.603 21.9155C77.8744 27.421 81.3351 34.401 82.5064 41.8904C83.3268 47.1359 82.9958 52.4498 81.5692 57.4696C80.5531 61.0452 76.4642 62.3446 73.1563 60.6428C69.837 58.9351 68.6075 54.8335 69.2288 51.1501C69.6386 48.7204 69.6571 46.2195 69.2698 43.7426C68.5291 39.0065 66.3406 34.5925 63.0071 31.1109C59.6735 27.6293 55.3595 25.2521 50.6615 24.3081C45.9635 23.364 41.1136 23.8997 36.7825 25.841C32.4513 27.7824 28.8527 31.0335 26.4844 35.1449C24.116 39.2563 23.0949 44.0248 23.5622 48.7912C24.0294 53.5575 25.9619 58.0863 29.0926 61.7512C30.7658 63.7099 32.7371 65.3702 34.9183 66.6768C38.0819 68.5717 40.3288 72.1458 39.4532 75.7237Z" fill="url(#paint1_linear_1006_35)"/>
</g>
<path d="M40.6055 40.463C40.6055 39.024 41.772 37.8575 43.2109 37.8575C44.6499 37.8575 45.8164 39.024 45.8164 40.463C45.8164 41.3029 45.4189 42.05 44.8018 42.5265C44.7833 42.5402 44.7648 42.554 44.7465 42.568C44.3159 42.8827 43.7851 43.0684 43.2109 43.0684C41.772 43.0684 40.6055 41.9019 40.6055 40.463Z" fill="white"/>
<path d="M49.4364 42.5265C49.455 42.5402 49.4735 42.554 49.4918 42.5681C49.9224 42.8827 50.4532 43.0684 51.0273 43.0684C52.4663 43.0684 53.6328 41.9019 53.6328 40.463C53.6328 39.024 52.4663 37.8575 51.0273 37.8575C49.5884 37.8575 48.4219 39.024 48.4219 40.463C48.4219 41.3029 48.8193 42.05 49.4364 42.5265Z" fill="white"/>
<path d="M44.8622 44.3713C45.3127 43.5926 46.1548 43.0686 47.1191 43.0686C48.0835 43.0686 48.9256 43.5926 49.3761 44.3713C49.5977 44.7546 49.7246 45.1995 49.7246 45.6741C49.7246 47.113 48.5581 48.2795 47.1191 48.2795C45.6802 48.2795 44.5137 47.113 44.5137 45.6741C44.5137 45.1995 44.6405 44.7546 44.8622 44.3713Z" fill="white"/>
<path d="M39.9541 44.3705H43.4333C43.2893 44.778 43.2109 45.2165 43.2109 45.6733C43.2109 46.6742 43.5872 47.5873 44.2061 48.2787H43.8623C42.4486 48.2787 41.2454 49.1794 40.795 50.4382C40.3521 50.258 39.9424 50.0226 39.5791 49.731C38.5979 48.9435 38 47.7786 38 46.3246C38 45.2455 38.8749 44.3705 39.9541 44.3705Z" fill="white"/>
<path d="M50.376 48.2787C51.7896 48.2787 52.993 49.1794 53.4433 50.4382C53.8862 50.258 54.2959 50.0226 54.6593 49.731C55.6404 48.9435 56.2383 47.7786 56.2383 46.3246C56.2383 45.2454 55.3634 44.3705 54.2842 44.3705H50.805C50.949 44.778 51.0274 45.2165 51.0274 45.6733C51.0274 46.6742 50.651 47.5873 50.0322 48.2787H50.376Z" fill="white"/>
<path d="M52.183 50.7905C52.2777 51.0202 52.3301 51.2719 52.3301 51.5357C52.3301 52.9897 51.7321 54.1546 50.751 54.9421C49.7853 55.7172 48.491 56.0953 47.1191 56.0953C45.7473 56.0953 44.453 55.7172 43.4873 54.9421C42.5061 54.1546 41.9082 52.9897 41.9082 51.5357C41.9082 51.2719 41.9605 51.0202 42.0553 50.7905C42.3482 50.0809 43.0469 49.5816 43.8623 49.5816H50.376C51.1914 49.5816 51.89 50.0809 52.183 50.7905Z" fill="white"/>
<defs>
<filter id="filter0_f_1006_35" x="4.05273" y="4.43982" width="84.8945" height="82.0291" filterUnits="userSpaceOnUse" color-interpolation-filters="sRGB">
<feFlood flood-opacity="0" result="BackgroundImageFix"/>
<feBlend mode="normal" in="SourceGraphic" in2="BackgroundImageFix" result="shape"/>
<feGaussianBlur stdDeviation="3" result="effect1_foregroundBlur_1006_35"/>
</filter>
<linearGradient id="paint0_linear_1006_35" x1="80.3449" y1="60.0726" x2="11.7777" y2="35.167" gradientUnits="userSpaceOnUse">
<stop stop-color="#4D29FF"/>
<stop offset="1" stop-color="#966BFF"/>
</linearGradient>
<linearGradient id="paint1_linear_1006_35" x1="80.3449" y1="60.0726" x2="11.7777" y2="35.167" gradientUnits="userSpaceOnUse">
<stop stop-color="#4D29FF"/>
<stop offset="1" stop-color="#966BFF"/>
</linearGradient>
</defs>
</svg>
