<svg width="32" height="33" viewBox="0 0 32 33" fill="none" xmlns="http://www.w3.org/2000/svg">
<mask id="mask0_1_7429" style="mask-type:luminance" maskUnits="userSpaceOnUse" x="0" y="0" width="33" height="33">
<path d="M32.0023 0.790039H0V32.79H32.0023V0.790039Z" fill="white"/>
</mask>
<g mask="url(#mask0_1_7429)">
<mask id="mask1_1_7429" style="mask-type:luminance" maskUnits="userSpaceOnUse" x="0" y="0" width="33" height="33">
<path d="M0 0.790039H32.0023V32.79H0V0.790039Z" fill="white"/>
</mask>
<g mask="url(#mask1_1_7429)">
<path d="M9.05021 7.28441L8.38643 7.90337C8.1183 8.15337 7.74008 8.24726 7.38612 8.15166L6.50997 7.91502L7.12887 8.57881C7.37891 8.84696 7.47283 9.22515 7.37722 9.57911L7.14058 10.4553L7.80437 9.83636C8.07249 9.58629 8.45069 9.49244 8.80465 9.58804L9.68082 9.82465L9.06189 9.16089C8.81185 8.89274 8.71796 8.51451 8.81358 8.16062L9.05021 7.28441Z" fill="#FFE5A2"/>
<path d="M15.0522 13.4822C17.0572 12.2479 18.9415 10.7358 20.2194 8.73884C21.0753 7.40161 21.6067 7.64742 22.6423 8.4683C23.2897 8.98142 24.9681 11.0285 24.4505 12.1966C23.6354 14.0359 19.2601 15.4381 15.6329 15.4428C15.2762 15.4432 14.9439 15.2579 14.7523 14.9572L14.7167 14.9366C14.4026 14.444 14.5545 13.7885 15.0522 13.4822Z" fill="#FD6806"/>
<path d="M17.4651 11.7741C16.705 12.4018 15.8896 12.9666 15.0522 13.4822C14.5545 13.7887 14.4026 14.4442 14.7167 14.9371L14.7521 14.9572C14.9437 15.2578 15.2762 15.4434 15.6329 15.443C18.3222 15.4393 21.4214 14.6673 23.1772 13.5188C20.5551 13.4183 18.2607 12.2329 17.4651 11.7741Z" fill="#E84614"/>
<path d="M18.6632 14.3362C18.6632 14.3362 15.9515 11.5924 13.446 9.24423C10.8888 6.84733 9.82787 6.79276 8.49719 8.66312C7.16674 10.5334 6.70835 12.812 8.61626 13.6194C10.5242 14.4269 16.1704 16.189 16.7187 15.7639C17.2673 15.3388 18.6632 14.3362 18.6632 14.3362Z" fill="#FF8A20"/>
<path d="M15.2307 10.9457C14.3677 12.9061 10.14 13.6893 9.1785 13.8438C11.4464 14.7102 16.2172 16.1533 16.7192 15.764C17.2678 15.3389 18.6634 14.3364 18.6634 14.3364C18.6634 14.3364 17.0888 12.743 15.2307 10.9457Z" fill="#FD6806"/>
<path d="M23.4715 30.5184H8.483C7.0829 30.5184 5.94763 29.3832 5.94763 27.9832V17.1451C5.94763 15.7448 7.0829 14.6101 8.483 14.6101H23.4715C24.8719 14.6101 26.0069 15.7448 26.0069 17.1451V27.9832C26.0069 29.3832 24.8719 30.5184 23.4715 30.5184Z" fill="#FAB021"/>
<path d="M13.5822 30.5184H18.3728V14.6101H13.5822V30.5184Z" fill="#FD6806"/>
<g opacity="0.2">
<path d="M5.88837 17.8708V21.2761L25.9474 22.7617V17.8708C25.9474 17.5703 25.8922 17.2833 25.7961 17.0159H6.0397C5.94357 17.2833 5.88837 17.5703 5.88837 17.8708Z" fill="#BA0800"/>
</g>
<path d="M26.2162 19.3557H5.66791C4.77107 19.3557 4.04437 18.6288 4.04437 17.7325V14.9796C4.04437 14.0831 4.77107 13.3564 5.66791 13.3564H26.2162C27.1128 13.3564 27.8395 14.0831 27.8395 14.9796V17.7325C27.8395 18.6288 27.1128 19.3557 26.2162 19.3557Z" fill="#FFC93E"/>
<path d="M13.4168 19.3557H18.4672V13.3564H13.4168V19.3557Z" fill="#FF8A20"/>
<path d="M29.2435 12.3921L28.3322 11.9708C27.9642 11.8006 27.71 11.4525 27.6601 11.05L27.5364 10.0538L27.1151 10.965C26.9449 11.3331 26.5968 11.5873 26.1943 11.6372L25.1981 11.7609L26.1093 12.1822C26.4774 12.3523 26.7315 12.7005 26.7815 13.103L26.9051 14.0992L27.3264 13.188C27.4966 12.8199 27.8448 12.5657 28.2472 12.5158L29.2435 12.3921Z" fill="#FFE5A2"/>
<path d="M7.31602 28.3202L7.31164 28.3032C7.30987 28.2964 7.31176 28.2891 7.31665 28.284L7.32876 28.2713L7.31178 28.2757C7.30492 28.2774 7.29763 28.2755 7.2925 28.2707L7.27981 28.2585L7.28419 28.2755C7.28596 28.2824 7.28407 28.2897 7.27918 28.2948L7.26708 28.3075L7.28406 28.3031C7.29092 28.3013 7.2982 28.3032 7.30333 28.3081L7.31602 28.3202Z" fill="#FFE5A2"/>
</g>
</g>
</svg>
