<svg width="112" height="36" viewBox="0 0 112 36" fill="none" xmlns="http://www.w3.org/2000/svg">
<path d="M37.3898 25.5413H34.9219V12.5908H37.2188V14.7411C38.0984 13.2506 39.4912 12.3465 41.2749 12.3465C43.1809 12.3465 44.6225 13.3239 45.209 15.0343C46.1131 13.3727 47.6036 12.3465 49.5828 12.3465C52.2462 12.3465 53.9567 14.0814 53.9567 17.1602V25.5413H51.4887V17.9421C51.4887 15.7918 50.5358 14.5212 48.7276 14.5212C47.0416 14.5212 45.6732 15.9384 45.6732 18.1131V25.5413H43.2053V17.9421C43.2053 15.7918 42.2523 14.5212 40.4442 14.5212C38.7337 14.5212 37.3898 15.9384 37.3898 18.1131V25.5413ZM62.5836 25.7857C58.8451 25.7857 56.3283 23.0734 56.3283 18.9928C56.3283 15.1565 58.9428 12.3465 62.5103 12.3465C66.371 12.3465 68.9367 15.4741 68.4969 19.6769H58.8451C59.0406 22.3159 60.3601 23.8553 62.5348 23.8553C64.3674 23.8553 65.638 22.8535 66.0534 21.1675H68.4969C67.8616 24.0508 65.638 25.7857 62.5836 25.7857ZM62.4615 14.2035C60.4822 14.2035 59.1383 15.6208 58.8695 18.0398H65.8823C65.7602 15.6452 64.4651 14.2035 62.4615 14.2035ZM73.5889 18.9195V25.5413H71.1209V12.5908H73.4178V15.3275C74.3219 13.5438 76.2767 12.4198 78.4025 12.4198V14.9854C75.617 14.8388 73.5889 16.0606 73.5889 18.9195ZM85.4146 25.8101C81.8716 25.8101 79.3792 23.0245 79.3792 19.0661C79.3792 15.1565 81.9204 12.3465 85.4146 12.3465C88.6156 12.3465 90.9369 14.4723 91.4012 17.8443H88.8111C88.5423 15.7674 87.2472 14.5212 85.4391 14.5212C83.3132 14.5212 81.9204 16.3294 81.9204 19.0661C81.9204 21.8272 83.3132 23.611 85.4391 23.611C87.2717 23.611 88.5423 22.3892 88.8355 20.2878H91.4012C90.9613 23.7087 88.6645 25.8101 85.4146 25.8101ZM96.3778 25.5413H93.8855V7.99707H96.3778V25.5413ZM105.13 25.7857C101.391 25.7857 98.8746 23.0734 98.8746 18.9928C98.8746 15.1565 101.489 12.3465 105.057 12.3465C108.917 12.3465 111.483 15.4741 111.043 19.6769H101.391C101.587 22.3159 102.906 23.8553 105.081 23.8553C106.914 23.8553 108.184 22.8535 108.6 21.1675H111.043C110.408 24.0508 108.184 25.7857 105.13 25.7857ZM105.008 14.2035C103.029 14.2035 101.685 15.6208 101.416 18.0398H108.429C108.306 15.6452 107.011 14.2035 105.008 14.2035Z" fill="white"/>
<path d="M14.3789 0.862169C14.3796 0.803691 14.4033 0.747844 14.445 0.706736C14.4867 0.665628 14.5429 0.642574 14.6015 0.642578H15.6489C15.7074 0.642574 15.7637 0.665628 15.8053 0.706736C15.847 0.747844 15.8708 0.803691 15.8714 0.862169V1.88693C15.8714 1.94586 15.848 2.00238 15.8062 2.04405C15.7645 2.08572 15.7079 2.10914 15.6489 2.10914H14.6015C14.5424 2.10914 14.4858 2.08572 14.4441 2.04405C14.4024 2.00238 14.3789 1.94586 14.3789 1.88693V0.862169Z" fill="white"/>
<path d="M19.4355 3.57324C19.3769 3.57324 19.3207 3.59628 19.279 3.63741C19.2373 3.67851 19.2136 3.73434 19.2129 3.79284V4.8202C19.2136 4.87868 19.2373 4.93453 19.279 4.97563C19.3207 5.01676 19.3769 5.0398 19.4355 5.0398H20.4828C20.5414 5.0398 20.5976 5.01676 20.6393 4.97563C20.681 4.93453 20.7047 4.87868 20.7054 4.8202V3.79284C20.7047 3.73434 20.681 3.67851 20.6393 3.63741C20.5976 3.59628 20.5414 3.57324 20.4828 3.57324H19.4355Z" fill="white"/>
<path d="M24.0469 6.72352C24.0472 6.69434 24.0533 6.66551 24.0648 6.63868C24.0763 6.61185 24.093 6.58754 24.1139 6.56716C24.1348 6.54676 24.1596 6.53068 24.1867 6.51983C24.2138 6.50898 24.2428 6.50358 24.2721 6.50392H25.3194C25.378 6.50392 25.4342 6.52696 25.476 6.56809C25.5175 6.60919 25.5412 6.66505 25.542 6.72352V7.75088C25.5412 7.80938 25.5175 7.86521 25.476 7.90634C25.4342 7.94744 25.378 7.97048 25.3194 7.97048H24.2721C24.2428 7.97082 24.2138 7.96542 24.1867 7.95457C24.1596 7.94372 24.1348 7.92764 24.1139 7.90724C24.093 7.88686 24.0763 7.86255 24.0648 7.83572C24.0533 7.80889 24.0472 7.78008 24.0469 7.75088V6.72352Z" fill="white"/>
<path d="M0.25 9.65321C0.250689 9.59471 0.274442 9.53887 0.316108 9.49775C0.357773 9.45665 0.413991 9.43361 0.47257 9.43361H1.51995C1.54918 9.43327 1.5782 9.43867 1.60533 9.44952C1.63247 9.46037 1.6572 9.47644 1.67811 9.49682C1.69902 9.51723 1.7157 9.54154 1.7272 9.56837C1.73871 9.5952 1.7448 9.62401 1.74514 9.65321V10.6806C1.7448 10.7097 1.73871 10.7386 1.7272 10.7654C1.7157 10.7922 1.69902 10.8166 1.67811 10.8369C1.6572 10.8573 1.63247 10.8734 1.60533 10.8843C1.5782 10.8951 1.54918 10.9005 1.51995 10.9002H0.47257C0.413991 10.9002 0.357773 10.8771 0.316108 10.836C0.274442 10.7949 0.250689 10.739 0.25 10.6806V9.65321Z" fill="white"/>
<path d="M0.25 15.5175C0.249998 15.4884 0.255773 15.4597 0.26699 15.4329C0.278207 15.406 0.294643 15.3817 0.315345 15.3613C0.336048 15.3409 0.360605 15.3247 0.387594 15.3139C0.414582 15.303 0.443465 15.2976 0.47257 15.2979H1.51995C1.54928 15.2972 1.57844 15.3024 1.60574 15.3131C1.63303 15.3238 1.6579 15.3399 1.67888 15.3603C1.69986 15.3808 1.71653 15.4053 1.72791 15.4322C1.73929 15.4592 1.74515 15.4882 1.74514 15.5175V16.5423C1.74515 16.5716 1.73929 16.6005 1.72791 16.6275C1.71653 16.6545 1.69986 16.679 1.67888 16.6994C1.6579 16.7199 1.63303 16.736 1.60574 16.7467C1.57844 16.7574 1.54928 16.7626 1.51995 16.7619H0.47257C0.443465 16.7622 0.414582 16.7568 0.387594 16.7459C0.360605 16.735 0.336048 16.7189 0.315345 16.6985C0.294643 16.678 0.278207 16.6537 0.26699 16.6269C0.255773 16.6001 0.249998 16.5713 0.25 16.5423V15.5175Z" fill="white"/>
<path d="M0.47257 21.1592C0.413991 21.1592 0.357773 21.1822 0.316108 21.2233C0.274442 21.2645 0.250689 21.3203 0.25 21.3788V22.4035C0.249998 22.4326 0.255773 22.4614 0.26699 22.4882C0.278207 22.515 0.294643 22.5393 0.315345 22.5598C0.336048 22.5802 0.360605 22.5963 0.387594 22.6072C0.414582 22.6181 0.443465 22.6235 0.47257 22.6231H1.51995C1.54928 22.6238 1.57844 22.6187 1.60574 22.6079C1.63303 22.5972 1.6579 22.5812 1.67888 22.5607C1.69986 22.5402 1.71653 22.5158 1.72791 22.4888C1.73929 22.4618 1.74515 22.4328 1.74514 22.4035V21.3788C1.7448 21.3496 1.73871 21.3208 1.7272 21.2939C1.7157 21.2671 1.69902 21.2428 1.67811 21.2224C1.6572 21.202 1.63247 21.186 1.60533 21.1751C1.5782 21.1643 1.54918 21.1589 1.51995 21.1592H0.47257Z" fill="white"/>
<path d="M0.25 27.2392C0.250689 27.1806 0.274442 27.1249 0.316108 27.0838C0.357773 27.0425 0.413991 27.0195 0.47257 27.0195H1.51995C1.54918 27.0193 1.5782 27.0247 1.60533 27.0354C1.63247 27.0464 1.6572 27.0623 1.67811 27.0828C1.69902 27.1031 1.7157 27.1275 1.7272 27.1544C1.73871 27.1811 1.7448 27.2099 1.74514 27.2392V28.2665C1.7448 28.2958 1.73871 28.3246 1.7272 28.3515C1.7157 28.3781 1.69902 28.4026 1.67811 28.4228C1.6572 28.4434 1.63247 28.4595 1.60533 28.4702C1.5782 28.481 1.54918 28.4864 1.51995 28.4861H0.47257C0.413991 28.4861 0.357773 28.4632 0.316108 28.4219C0.274442 28.3808 0.250689 28.3251 0.25 28.2665V27.2392Z" fill="white"/>
<path d="M28.7329 9.43359C28.674 9.43359 28.6175 9.45654 28.5755 9.49759C28.5335 9.53862 28.509 9.59447 28.5078 9.65319V10.6806C28.509 10.7393 28.5335 10.7951 28.5755 10.8362C28.6175 10.8772 28.674 10.9002 28.7329 10.9002H29.7804C29.8388 10.9002 29.895 10.8771 29.9368 10.836C29.9783 10.7949 30.0023 10.7391 30.0027 10.6806V9.65319C30.0023 9.59472 29.9783 9.53886 29.9368 9.49776C29.895 9.45664 29.8388 9.43359 29.7804 9.43359H28.7329Z" fill="white"/>
<path d="M28.5078 15.5175C28.5081 15.4883 28.5142 15.4595 28.5257 15.4326C28.5371 15.4058 28.5537 15.3815 28.5748 15.3611C28.5955 15.3407 28.6205 15.3246 28.6476 15.3138C28.6747 15.3029 28.7035 15.2975 28.7329 15.2979H29.7804C29.8095 15.2975 29.8383 15.3029 29.8652 15.3138C29.8923 15.3247 29.9167 15.3408 29.9375 15.3613C29.9583 15.3817 29.9746 15.406 29.9859 15.4328C29.9971 15.4596 30.0027 15.4884 30.0027 15.5175V16.5422C30.0027 16.5713 29.9971 16.6001 29.9859 16.6269C29.9746 16.6537 29.9583 16.678 29.9375 16.6984C29.9167 16.7189 29.8923 16.735 29.8652 16.7459C29.8383 16.7567 29.8095 16.7622 29.7804 16.7618H28.7329C28.7035 16.7622 28.6747 16.7568 28.6476 16.7459C28.6205 16.7351 28.5955 16.719 28.5748 16.6986C28.5537 16.6782 28.5371 16.6539 28.5257 16.6271C28.5142 16.6002 28.5081 16.5714 28.5078 16.5422V15.5175Z" fill="white"/>
<path d="M28.7329 21.1592C28.674 21.1592 28.6175 21.1821 28.5755 21.2232C28.5335 21.2642 28.509 21.3201 28.5078 21.3788V22.4035C28.5081 22.4327 28.5142 22.4615 28.5257 22.4884C28.5371 22.5152 28.5537 22.5395 28.5748 22.5599C28.5955 22.5803 28.6205 22.5964 28.6476 22.6072C28.6747 22.6181 28.7035 22.6235 28.7329 22.6231H29.7804C29.8095 22.6235 29.8383 22.618 29.8652 22.6072C29.8923 22.5963 29.9167 22.5802 29.9375 22.5597C29.9583 22.5393 29.9746 22.515 29.9859 22.4882C29.9971 22.4614 30.0027 22.4326 30.0027 22.4035V21.3788C30.0023 21.3203 29.9783 21.2644 29.9368 21.2233C29.895 21.1822 29.8388 21.1592 29.7804 21.1592H28.7329Z" fill="white"/>
<path d="M28.5078 27.2392C28.509 27.1803 28.5335 27.1246 28.5755 27.0836C28.6175 27.0425 28.674 27.0195 28.7329 27.0195H29.7804C29.8388 27.0195 29.895 27.0425 29.9368 27.0838C29.9783 27.1248 30.0023 27.1806 30.0027 27.2392V28.2664C30.0023 28.3251 29.9783 28.3808 29.9368 28.4218C29.895 28.4631 29.8388 28.4861 29.7804 28.4861H28.7329C28.674 28.4861 28.6175 28.4631 28.5755 28.4221C28.5335 28.381 28.509 28.3253 28.5078 28.2664V27.2392Z" fill="white"/>
<path d="M4.19039 28.4863C4.16058 28.4866 4.13116 28.4929 4.10389 28.5049C4.07662 28.5169 4.05209 28.5342 4.03176 28.556C4.01143 28.578 3.99574 28.6036 3.98565 28.6315C3.97556 28.6596 3.97128 28.6891 3.97304 28.7189V29.7437C3.97304 29.7728 3.97883 29.8014 3.99005 29.8283C4.00126 29.8552 4.01768 29.8796 4.0384 29.8999C4.0591 29.9204 4.08366 29.9365 4.11063 29.9473C4.13763 29.9583 4.16652 29.9637 4.19562 29.9634H5.243C5.2721 29.9637 5.301 29.9583 5.32798 29.9473C5.35498 29.9365 5.37954 29.9204 5.40023 29.8999C5.42093 29.8796 5.43738 29.8552 5.44859 29.8283C5.45981 29.8014 5.46557 29.7728 5.46557 29.7437V28.7189C5.46557 28.6899 5.45981 28.661 5.44859 28.6344C5.43738 28.6075 5.42093 28.5831 5.40023 28.5628C5.37954 28.5423 5.35498 28.5262 5.32798 28.5154C5.301 28.5044 5.2721 28.499 5.243 28.4993L4.19039 28.4863Z" fill="white"/>
<path d="M8.72527 31.6364C8.72664 31.5778 8.75095 31.5221 8.79305 31.481C8.83513 31.44 8.89162 31.417 8.95046 31.417H9.99784C10.0567 31.417 10.1132 31.44 10.1552 31.481C10.1973 31.5221 10.2217 31.5778 10.223 31.6364V32.6612C10.2227 32.6905 10.2166 32.7194 10.2051 32.746C10.1936 32.7729 10.1769 32.7973 10.156 32.8176C10.1351 32.8381 10.1104 32.854 10.0832 32.865C10.0561 32.8758 10.0271 32.8811 9.99784 32.8809H8.94785C8.9186 32.8811 8.8896 32.8758 8.86247 32.865C8.83533 32.854 8.8106 32.8381 8.78968 32.8176C8.76877 32.7973 8.7521 32.7729 8.74059 32.746C8.72908 32.7194 8.723 32.6905 8.72266 32.6612L8.72527 31.6364Z" fill="white"/>
<path d="M14.6015 34.3467C14.5429 34.3467 14.4867 34.3696 14.445 34.4107C14.4033 34.452 14.3796 34.5077 14.3789 34.5661V35.5936C14.3796 35.652 14.4033 35.7079 14.445 35.749C14.4867 35.79 14.5429 35.8133 14.6015 35.8133H15.6489C15.7074 35.8133 15.7637 35.79 15.8053 35.749C15.847 35.7079 15.8708 35.652 15.8714 35.5936V34.5661C15.8708 34.5077 15.847 34.452 15.8053 34.4107C15.7637 34.3696 15.7074 34.3467 15.6489 34.3467H14.6015Z" fill="white"/>
<path d="M18.8418 32.3789C18.8425 32.3205 18.8663 32.2645 18.9079 32.2234C18.9496 32.1824 19.0058 32.1592 19.0644 32.1592H20.1118C20.1703 32.1592 20.2265 32.1824 20.2682 32.2234C20.3099 32.2645 20.3336 32.3205 20.3343 32.3789V33.4063C20.3336 33.4647 20.3099 33.5207 20.2682 33.5617C20.2265 33.6028 20.1703 33.6258 20.1118 33.6258H19.0644C19.0058 33.6258 18.9496 33.6028 18.9079 33.5617C18.8663 33.5207 18.8425 33.4647 18.8418 33.4063V32.3789Z" fill="white"/>
<path d="M23.5253 29.2188C23.4667 29.2188 23.4105 29.2417 23.3688 29.2828C23.3272 29.3238 23.3034 29.3798 23.3027 29.4382V30.463C23.3027 30.5219 23.3262 30.5786 23.3679 30.6201C23.4097 30.6619 23.4663 30.6853 23.5253 30.6853H24.5727C24.6317 30.6853 24.6883 30.6619 24.7301 30.6201C24.7719 30.5786 24.7954 30.5219 24.7954 30.463V29.4382C24.7946 29.3798 24.7707 29.3238 24.7291 29.2828C24.6874 29.2417 24.6313 29.2188 24.5727 29.2188H23.5253Z" fill="white"/>
<path d="M9.02336 3.57324C8.96479 3.57324 8.90856 3.59628 8.8669 3.63741C8.82524 3.67851 8.80149 3.73434 8.80078 3.79284V4.8202C8.80149 4.87868 8.82524 4.93453 8.8669 4.97563C8.90856 5.01676 8.96479 5.0398 9.02336 5.0398H10.0708C10.1293 5.0398 10.1856 5.01676 10.2272 4.97563C10.2689 4.93453 10.2926 4.87868 10.2933 4.8202V3.79284C10.2926 3.73434 10.2689 3.67851 10.2272 3.63741C10.1856 3.59628 10.1293 3.57324 10.0708 3.57324H9.02336Z" fill="white"/>
<path d="M3.97266 6.7235C3.97336 6.66503 3.99712 6.60917 4.03878 6.56807C4.08044 6.52697 4.13666 6.50391 4.19523 6.50391H5.24261C5.30121 6.50391 5.35741 6.52697 5.39909 6.56807C5.44075 6.60917 5.4645 6.66503 5.46519 6.7235V7.75089C5.4645 7.80937 5.44075 7.86522 5.39909 7.90632C5.35741 7.94742 5.30121 7.97049 5.24261 7.97049H4.19523C4.13666 7.97049 4.08044 7.94742 4.03878 7.90632C3.99712 7.86522 3.97336 7.80937 3.97266 7.75089V6.7235Z" fill="white"/>
<path d="M14.6015 6.49902C14.5429 6.49902 14.4867 6.52209 14.445 6.56319C14.4033 6.60429 14.3796 6.66015 14.3789 6.71862V7.74598C14.3796 7.80448 14.4033 7.86034 14.445 7.90144C14.4867 7.94254 14.5429 7.96558 14.6015 7.96558H15.6489C15.7074 7.96558 15.7637 7.94254 15.8053 7.90144C15.847 7.86034 15.8708 7.80448 15.8714 7.74598V6.71862C15.8708 6.66015 15.847 6.60429 15.8053 6.56319C15.7637 6.52209 15.7074 6.49902 15.6489 6.49902H14.6015Z" fill="white"/>
<path d="M14.3789 23.577C14.3789 23.548 14.3847 23.5192 14.3959 23.4924C14.4071 23.4656 14.4235 23.4412 14.4442 23.4208C14.465 23.4004 14.4895 23.3843 14.5165 23.3734C14.5435 23.3625 14.5724 23.3571 14.6015 23.3574H15.6489C15.678 23.3571 15.7068 23.3625 15.7338 23.3734C15.7608 23.3843 15.7854 23.4004 15.8061 23.4208C15.8268 23.4412 15.8432 23.4656 15.8544 23.4924C15.8656 23.5192 15.8714 23.548 15.8714 23.577V24.6018C15.8714 24.6309 15.8656 24.6596 15.8544 24.6864C15.8432 24.7133 15.8268 24.7376 15.8061 24.758C15.7854 24.7784 15.7608 24.7946 15.7338 24.8054C15.7068 24.8163 15.678 24.8217 15.6489 24.8214H14.6015C14.5724 24.8217 14.5435 24.8163 14.5165 24.8054C14.4895 24.7946 14.465 24.7784 14.4442 24.758C14.4235 24.7376 14.4071 24.7133 14.3959 24.6864C14.3847 24.6596 14.3789 24.6309 14.3789 24.6018V23.577Z" fill="white"/>
<path d="M14.6015 28.4864C14.5724 28.4859 14.5435 28.4915 14.5165 28.5022C14.4895 28.5132 14.465 28.5294 14.4442 28.5496C14.4235 28.5702 14.4071 28.5944 14.3959 28.6212C14.3847 28.6481 14.3789 28.6769 14.3789 28.706V29.7306C14.3789 29.7597 14.3847 29.7885 14.3959 29.8154C14.4071 29.8423 14.4235 29.8664 14.4442 29.887C14.465 29.9072 14.4895 29.9234 14.5165 29.9344C14.5435 29.9451 14.5724 29.9505 14.6015 29.9503H15.6489C15.678 29.9505 15.7068 29.9451 15.7338 29.9344C15.7608 29.9234 15.7854 29.9072 15.8061 29.887C15.8268 29.8664 15.8432 29.8423 15.8544 29.8154C15.8656 29.7885 15.8714 29.7597 15.8714 29.7306V28.719C15.8714 28.6899 15.8656 28.6611 15.8544 28.6344C15.8432 28.6076 15.8268 28.5831 15.8061 28.5628C15.7854 28.5423 15.7608 28.5262 15.7338 28.5154C15.7068 28.5044 15.678 28.4991 15.6489 28.4993L14.6015 28.4864Z" fill="white"/>
<path fill-rule="evenodd" clip-rule="evenodd" d="M9.69401 11.6327H9.02369C8.94574 11.6337 8.86838 11.6194 8.79601 11.5905C8.72365 11.5616 8.65773 11.5187 8.60199 11.4643C8.54628 11.4098 8.50188 11.345 8.47134 11.2734C8.44082 11.2018 8.42474 11.1249 8.42406 11.0471V9.28774C8.42543 9.1315 8.48876 8.98215 8.60016 8.87242C8.71153 8.76268 8.86196 8.70145 9.01844 8.70215H10.8042C10.9607 8.70145 11.1111 8.76268 11.2225 8.87242C11.3339 8.98215 11.3972 9.1315 11.3986 9.28774V9.95957L13.9228 11.7268C14.0177 11.6672 14.1275 11.6355 14.2397 11.6353H16.0176C16.144 11.6345 16.2671 11.6749 16.3685 11.7503L18.8429 9.47073V9.29035C18.8443 9.13412 18.9076 8.98477 19.019 8.87503C19.1304 8.76529 19.2808 8.70406 19.4373 8.70477H21.2231C21.3796 8.70406 21.53 8.76529 21.6414 8.87503C21.7528 8.98477 21.8161 9.13412 21.8175 9.29035V11.0497C21.8161 11.2059 21.7528 11.3553 21.6414 11.465C21.53 11.5747 21.3796 11.636 21.2231 11.6353H20.6994V13.8338H21.2231C21.3796 13.8331 21.53 13.8943 21.6414 14.0041C21.7528 14.1138 21.8161 14.2631 21.8175 14.4194V14.4743L23.3048 13.3999V12.2209C23.3062 12.0646 23.3695 11.9153 23.4809 11.8055C23.5923 11.6958 23.7427 11.6346 23.8992 11.6353H25.685C25.8414 11.6346 25.9919 11.6958 26.1034 11.8055C26.2145 11.9153 26.2781 12.0646 26.2793 12.2209V13.9802C26.279 14.0577 26.2634 14.1343 26.2334 14.2057C26.2031 14.2771 26.1593 14.3419 26.1041 14.3963C26.0489 14.4507 25.9834 14.4937 25.9115 14.5228C25.8395 14.5518 25.7625 14.5665 25.685 14.5658H25.1612V16.7643H25.685C25.8414 16.7636 25.9919 16.8249 26.1034 16.9346C26.2145 17.0443 26.2781 17.1937 26.2793 17.3499V19.1092C26.279 19.1867 26.2634 19.2633 26.2334 19.3348C26.2031 19.4062 26.1593 19.4709 26.1041 19.5253C26.0489 19.5797 25.9834 19.6227 25.9115 19.6518C25.8395 19.6809 25.7625 19.6955 25.685 19.6948H25.1612V21.8934H25.685C25.8414 21.8927 25.9919 21.9539 26.1034 22.0636C26.2145 22.1734 26.2781 22.3227 26.2793 22.4789V24.2383C26.279 24.3158 26.2634 24.3924 26.2334 24.4638C26.2031 24.5352 26.1593 24.6 26.1041 24.6544C26.0489 24.7088 25.9834 24.7518 25.9115 24.7809C25.8395 24.8099 25.7625 24.8246 25.685 24.8239H23.8965C23.7401 24.8246 23.5896 24.7633 23.4782 24.6536C23.3669 24.5439 23.3035 24.3945 23.3022 24.2383V22.4789C23.3035 22.3227 23.3669 22.1734 23.4782 22.0636C23.5896 21.9539 23.7401 21.8927 23.8965 21.8934H24.5669V19.6948H23.8965C23.7401 19.6955 23.5896 19.6343 23.4782 19.5246C23.3669 19.4148 23.3035 19.2655 23.3022 19.1092V17.3473C23.3035 17.191 23.3669 17.0417 23.4782 16.932C23.5896 16.8222 23.7401 16.761 23.8965 16.7617H24.5669V14.5632H23.8965C23.7636 14.5636 23.6344 14.5196 23.5295 14.438C23.4246 14.3565 23.3501 14.2423 23.3179 14.1135L21.8149 15.1984V16.1709C21.8135 16.3271 21.7502 16.4765 21.6388 16.5862C21.5274 16.696 21.377 16.7572 21.2205 16.7565H20.6968V18.955H21.2205C21.377 18.9543 21.5274 19.0155 21.6388 19.1253C21.7502 19.235 21.8135 19.3844 21.8149 19.5406V21.2999C21.8135 21.4562 21.7502 21.6055 21.6388 21.7152C21.5274 21.825 21.377 21.8862 21.2205 21.8855H20.6968V24.084H21.2205C21.377 24.0834 21.5274 24.1446 21.6388 24.2543C21.7502 24.3641 21.8135 24.5134 21.8149 24.6696V26.4289C21.8135 26.5853 21.7502 26.7346 21.6388 26.8443C21.5274 26.954 21.377 27.0153 21.2205 27.0146H19.4347C19.2782 27.0153 19.1278 26.954 19.0164 26.8443C18.905 26.7346 18.8417 26.5853 18.8403 26.4289V24.6696C18.8417 24.5134 18.905 24.3641 19.0164 24.2543C19.1278 24.1446 19.2782 24.0834 19.4347 24.084H20.105V21.8855H19.4347C19.2782 21.8862 19.1278 21.825 19.0164 21.7152C18.905 21.6055 18.8417 21.4562 18.8403 21.2999V19.5406C18.8417 19.3844 18.905 19.235 19.0164 19.1253C19.1278 19.0155 19.2782 18.9543 19.4347 18.955H20.105V16.7565H19.652L16.6094 18.955V19.1014C16.6094 19.2581 16.547 19.4084 16.436 19.5192C16.3251 19.63 16.1745 19.6922 16.0176 19.6922H14.2292C14.0727 19.6929 13.9223 19.6317 13.8109 19.5219C13.6995 19.4122 13.6362 19.2629 13.6348 19.1066V18.6204L11.0006 16.7303C10.9391 16.7513 10.8745 16.7619 10.8095 16.7617H10.2858V18.9602H10.8095C10.966 18.9595 11.1164 19.0208 11.2278 19.1305C11.3392 19.2402 11.4025 19.3896 11.4039 19.5458V21.3052C11.4025 21.4614 11.3392 21.6107 11.2278 21.7205C11.1164 21.8302 10.966 21.8914 10.8095 21.8907H10.2858V24.0893H10.8095C10.966 24.0886 11.1164 24.1498 11.2278 24.2595C11.3392 24.3693 11.4025 24.5186 11.4039 24.6749V26.4343C11.4025 26.5904 11.3392 26.7397 11.2278 26.8494C11.1164 26.9594 10.966 27.0205 10.8095 27.0197H9.02369C8.94574 27.0207 8.86838 27.0065 8.79601 26.9777C8.72365 26.9486 8.65773 26.9059 8.60199 26.8514C8.54628 26.7969 8.50188 26.7321 8.47134 26.6605C8.44082 26.5889 8.42474 26.512 8.42406 26.4343V24.6749C8.42543 24.5186 8.48876 24.3693 8.60016 24.2595C8.71153 24.1498 8.86196 24.0886 9.01844 24.0893H9.68878V21.8907H9.02369C8.94574 21.8918 8.86838 21.8774 8.79601 21.8485C8.72365 21.8196 8.65773 21.7768 8.60199 21.7223C8.54628 21.6679 8.50188 21.6031 8.47134 21.5315C8.44082 21.4599 8.42474 21.383 8.42406 21.3052V19.5458C8.42543 19.3896 8.48876 19.2402 8.60016 19.1305C8.71153 19.0208 8.86196 18.9595 9.01844 18.9602H9.68878V16.7617H9.02369C8.9453 16.7627 8.8675 16.7482 8.79481 16.719C8.72209 16.6898 8.65595 16.6464 8.60014 16.5914C8.54435 16.5365 8.50008 16.471 8.46985 16.3988C8.4396 16.3266 8.42406 16.2491 8.42406 16.1709V14.8899L6.94201 13.8181V13.9724C6.94062 14.1286 6.87731 14.2779 6.76591 14.3877C6.65451 14.4974 6.50411 14.5586 6.34761 14.5579H5.82392V16.7565H6.34761C6.50411 16.7558 6.65451 16.817 6.76591 16.9267C6.87731 17.0365 6.94062 17.1858 6.94201 17.3421V19.1014C6.94062 19.2576 6.87731 19.407 6.76591 19.5167C6.65451 19.6265 6.50411 19.6877 6.34761 19.687H5.82392V21.8855H6.34761C6.50411 21.8848 6.65451 21.946 6.76591 22.0558C6.87731 22.1655 6.94062 22.3149 6.94201 22.4711V24.2304C6.94062 24.3867 6.87731 24.536 6.76591 24.6457C6.65451 24.7555 6.50411 24.8167 6.34761 24.816H4.56183C4.40691 24.816 4.25825 24.7551 4.14798 24.6465C4.0377 24.5379 3.97473 24.3903 3.97266 24.2357V22.4763C3.97405 22.3201 4.03736 22.1707 4.14876 22.061C4.26016 21.9513 4.41055 21.8901 4.56706 21.8907H5.23738V19.6922H4.56183C4.40601 19.6922 4.25657 19.6306 4.14614 19.5208C4.03572 19.4111 3.97336 19.2622 3.97266 19.1066V17.3473C3.97405 17.191 4.03736 17.0417 4.14876 16.932C4.26016 16.8222 4.41055 16.761 4.56706 16.7617H5.23738V14.5632H4.56183C4.40601 14.5632 4.25657 14.5016 4.14614 14.3918C4.03572 14.2821 3.97336 14.1331 3.97266 13.9776V12.2182C3.97405 12.062 4.03736 11.9127 4.14876 11.8029C4.26016 11.6932 4.41055 11.632 4.56706 11.6327H6.35286C6.50934 11.632 6.65976 11.6932 6.77114 11.8029C6.88253 11.9127 6.94584 12.062 6.94724 12.2182V13.0992L8.47904 14.1972C8.52412 14.0887 8.60045 13.996 8.69834 13.9309C8.79623 13.8657 8.91127 13.831 9.02892 13.8312H9.69924L9.69401 11.6327ZM11.4039 10.6811L13.6348 12.2496V13.9776C13.6362 14.1338 13.6995 14.2832 13.8109 14.3929C13.9223 14.5026 14.0727 14.5639 14.2292 14.5632H16.0176C16.1741 14.5639 16.3245 14.5026 16.4359 14.3929C16.5473 14.2832 16.6106 14.1338 16.612 13.9776V12.3254L18.8429 10.2707V11.0549C18.8443 11.2112 18.9076 11.3605 19.019 11.4702C19.1304 11.58 19.2808 11.6412 19.4373 11.6405H20.1076V13.839H19.4347C19.2782 13.8383 19.1278 13.8996 19.0164 14.0093C18.905 14.1191 18.8417 14.2684 18.8403 14.4246V16.1709C18.8407 16.2998 18.8839 16.4248 18.9634 16.5264L16.6067 18.2283V17.3473C16.6054 17.1919 16.5428 17.0434 16.4325 16.9338C16.3222 16.8242 16.1732 16.7624 16.0176 16.7617H14.2292C14.0727 16.761 13.9223 16.8222 13.8109 16.932C13.6995 17.0417 13.6362 17.191 13.6348 17.3473V17.8936L11.3934 16.2885C11.3961 16.2511 11.3961 16.2135 11.3934 16.1761V14.4168C11.392 14.2605 11.3287 14.1112 11.2173 14.0015C11.1059 13.8917 10.9555 13.8305 10.799 13.8312H10.2753V11.6327H10.799C10.9555 11.6334 11.1059 11.5721 11.2173 11.4624C11.3287 11.3527 11.392 11.2033 11.3934 11.0471L11.4039 10.6811Z" fill="white"/>
</svg>
