<svg width="74" height="72" viewBox="0 0 74 72" fill="none" xmlns="http://www.w3.org/2000/svg">
<path d="M63.7343 40.0459C64.3903 40.0961 64.9644 39.603 64.9851 38.9454C65.2054 31.9573 62.9795 25.106 58.6957 19.6677C54.1687 13.9206 47.6876 10.1884 40.5852 9.23871C33.4828 8.289 26.2991 10.1939 20.5112 14.5618C14.7232 18.9296 10.7712 25.4283 9.46773 32.7215C8.16424 40.0147 9.60841 47.548 13.5032 53.7722C17.3981 59.9964 23.4475 64.4384 30.4075 66.1847C37.3675 67.9311 44.7091 66.849 50.9224 63.161C56.808 59.6675 61.2575 54.0873 63.4646 47.4714C63.6697 46.8565 63.3167 46.2026 62.6978 46.0097V46.0097C62.0617 45.8114 61.3893 46.175 61.175 46.8059C59.1396 52.8008 55.0882 57.855 49.7422 61.0282C44.0556 64.4036 37.3364 65.3939 30.9663 63.7956C24.5963 62.1973 19.0596 58.1319 15.495 52.4353C11.9303 46.7387 10.6085 39.8439 11.8015 33.169C12.9945 26.494 16.6116 20.5461 21.9088 16.5485C27.2061 12.5509 33.781 10.8075 40.2813 11.6767C46.7817 12.5459 52.7134 15.9617 56.8567 21.2217C60.7592 26.1759 62.7957 32.4115 62.6156 38.7765C62.5971 39.4293 63.083 39.9961 63.7343 40.0459V40.0459Z" fill="#303640"/>
<path d="M63.973 38C64.5402 38 65.0018 37.54 64.9824 36.9732C64.8187 32.1845 63.5113 27.5066 61.1708 23.361C58.6631 18.9196 55.0598 15.2491 50.7304 12.7261C46.401 10.2031 41.5015 8.91847 36.5345 9.00401C31.5676 9.08954 26.712 10.5422 22.466 13.2128C18.22 15.8835 14.7364 19.676 12.3727 24.2014C10.009 28.7267 8.85033 33.8219 9.01548 38.9641C9.18062 44.1063 10.6637 49.1105 13.3125 53.4631C15.7696 57.5007 19.1477 60.8428 23.1422 63.1992C23.6546 63.5014 24.3088 63.2934 24.5756 62.7618V62.7618C24.8317 62.2513 24.6341 61.6316 24.1424 61.3411C20.448 59.1581 17.3235 56.0647 15.0501 52.3288C12.5956 48.2955 11.2213 43.6584 11.0683 38.8934C10.9152 34.1283 11.9889 29.4069 14.1792 25.2136C16.3695 21.0202 19.5976 17.5058 23.5321 15.0311C27.4666 12.5563 31.966 11.2102 36.5687 11.131C41.1713 11.0517 45.7114 12.2421 49.7232 14.58C53.735 16.918 57.074 20.3192 59.3977 24.4349C61.5544 28.2546 62.7643 32.5621 62.9271 36.9732C62.9481 37.54 63.4059 38 63.973 38V38Z" fill="url(#paint0_linear_1014_25)"/>
<g filter="url(#filter0_f_1014_25)">
<path d="M63.8992 39.9933C64.4669 40.0353 64.9623 39.6076 64.982 39.0387C65.1477 34.2519 64.166 29.4913 62.1178 25.1849C59.9226 20.5694 56.5813 16.6419 52.4368 13.8054C48.2923 10.9688 43.4938 9.32534 38.5336 9.04353C33.5734 8.76173 28.6301 9.85175 24.2109 12.2018C19.7917 14.5518 16.0557 18.0772 13.3863 22.4163C10.7168 26.7554 9.20999 31.7519 9.0204 36.8932C8.83081 42.0345 9.96528 47.1355 12.3074 51.6729C14.4803 55.8824 17.6202 59.4661 21.4429 62.1118C21.9318 62.4502 22.5993 62.2895 22.9025 61.778V61.778C23.1926 61.2887 23.0403 60.6593 22.5728 60.3353C19.0355 57.8844 16.1301 54.5665 14.1187 50.6699C11.9484 46.4654 10.8971 41.7386 11.0728 36.9744C11.2485 32.2102 12.6448 27.5802 15.1184 23.5594C17.5921 19.5386 21.054 16.2718 25.1491 14.0942C29.2441 11.9165 33.8248 10.9065 38.4211 11.1676C43.0175 11.4287 47.464 12.9517 51.3045 15.5802C55.145 18.2086 58.2411 21.848 60.2753 26.1249C62.1639 30.0958 63.074 34.4835 62.9316 38.897C62.9134 39.462 63.3354 39.9515 63.8992 39.9933V39.9933Z" fill="url(#paint1_linear_1014_25)"/>
</g>
<defs>
<filter id="filter0_f_1014_25" x="0" y="0" width="74" height="71.2902" filterUnits="userSpaceOnUse" color-interpolation-filters="sRGB">
<feFlood flood-opacity="0" result="BackgroundImageFix"/>
<feBlend mode="normal" in="SourceGraphic" in2="BackgroundImageFix" result="shape"/>
<feGaussianBlur stdDeviation="4.5" result="effect1_foregroundBlur_1014_25"/>
</filter>
<linearGradient id="paint0_linear_1014_25" x1="37" y1="9" x2="37" y2="67" gradientUnits="userSpaceOnUse">
<stop stop-color="#DC3EF6"/>
<stop offset="0.541667" stop-color="#8F6AF1"/>
<stop offset="1" stop-color="#64A7E8"/>
</linearGradient>
<linearGradient id="paint1_linear_1014_25" x1="37" y1="9" x2="37" y2="67" gradientUnits="userSpaceOnUse">
<stop stop-color="#DC3EF6"/>
<stop offset="0.541667" stop-color="#8F6AF1"/>
<stop offset="1" stop-color="#64A7E8"/>
</linearGradient>
</defs>
</svg>
